<?xml version="1.0" encoding="UTF-8" standalone="no"?>
<!-- Generator: Adobe Illustrator 15.0.0, SVG Export Plug-In . SVG Version: 6.00 Build 0)  -->

<svg
   xmlns:dc="http://purl.org/dc/elements/1.1/"
   xmlns:cc="http://creativecommons.org/ns#"
   xmlns:rdf="http://www.w3.org/1999/02/22-rdf-syntax-ns#"
   xmlns:svg="http://www.w3.org/2000/svg"
   xmlns="http://www.w3.org/2000/svg"
   xmlns:xlink="http://www.w3.org/1999/xlink"
   xmlns:sodipodi="http://sodipodi.sourceforge.net/DTD/sodipodi-0.dtd"
   xmlns:inkscape="http://www.inkscape.org/namespaces/inkscape"
   version="1.1"
   id="Layer_1"
   x="0px"
   y="0px"
   width="1000px"
   height="1000px"
   viewBox="0 0 1000 1000"
   enable-background="new 0 0 1000 1000"
   xml:space="preserve"
   inkscape:version="0.91+devel+osxmenu r12922"
   sodipodi:docname="fieldcraft-colour-mark.svg"
   inkscape:export-filename="/Users/fgw/Work/Fieldcraft/creation/logo/fieldcraft-colour-mark.png"
   inkscape:export-xdpi="90.047997"
   inkscape:export-ydpi="90.047997"><metadata
     id="metadata5216"><rdf:RDF><cc:Work
         rdf:about=""><dc:format>image/svg+xml</dc:format><dc:type
           rdf:resource="http://purl.org/dc/dcmitype/StillImage" /><dc:title /></cc:Work></rdf:RDF></metadata><defs
     id="defs5214" /><sodipodi:namedview
     pagecolor="#ffffff"
     bordercolor="#666666"
     borderopacity="1"
     objecttolerance="10"
     gridtolerance="10"
     guidetolerance="10"
     inkscape:pageopacity="0"
     inkscape:pageshadow="2"
     inkscape:window-width="748"
     inkscape:window-height="569"
     id="namedview5212"
     showgrid="false"
     inkscape:zoom="0.236"
     inkscape:cx="500"
     inkscape:cy="500"
     inkscape:window-x="258"
     inkscape:window-y="275"
     inkscape:window-maximized="0"
     inkscape:current-layer="Layer_1" /><rect
     fill="#060660"
     width="1000"
     height="1000"
     id="rect5194" /><g
     id="g5196"><defs
       id="defs5198"><rect
         id="SVGID_1_"
         width="1000"
         height="1000" /></defs><clipPath
       id="SVGID_2_"><use
         xlink:href="#SVGID_1_"
         overflow="visible"
         id="use5202" /></clipPath><path
       clip-path="url(#SVGID_2_)"
       fill="#00FFAA"
       d="M448.435,221.25c23.907,0.41,42.311,12.258,42.474,12.364l127.273,75.835   l17.017-10.06l-134.921-80.381c-2.422-1.558-23.557-14.628-51.545-15.109c-0.606-0.01-1.203-0.015-1.803-0.015   c-30.275,0-54.034,13.249-69.497,38.547c-33.123,1.259-58.067,18.898-72.34,51.297c-10.618,24.104-11.546,48.065-11.612,50.357   c-4.185,81.024,28.27,139.201,56.242,173.74c29.804,36.802,60.344,54.924,62.565,56.215l34.036,20.52l16.957-10.038l-42.239-25.466   c-0.296-0.172-29.986-17.575-58.259-52.679c-37.631-46.721-55.114-101.059-51.966-161.504l0.009-0.248   c0.081-3.255,2.524-74.252,57.654-83.842c-8.424,21.968-9.274,42.43-9.344,44.789c-5.102,83.556,27.414,141.581,55.6,175.549   c29.495,35.545,59.924,52.53,63.21,54.306l33.733,20.445l16.938-10.026l-41.873-25.378l-0.436-0.248   c-0.3-0.159-30.303-16.327-58.676-50.734c-37.79-45.827-55.006-100.667-51.167-162.998l0.014-0.33   c0.045-1.812,0.811-24.668,11.016-46.21c21.57,1.712,37.609,12.033,37.762,12.132l127.501,76.047l17.004-10.053l-135.133-80.598   c-1.972-1.269-16.489-10.253-37.038-13.742C408.254,230.634,424.292,220.816,448.435,221.25"
       id="path5204" /><path
       clip-path="url(#SVGID_2_)"
       fill="#F7AA9F"
       d="M651.271,482.176c-30.292-37.404-61.344-55.511-62.562-56.211l-48.342-28.61   l-16.954,10.129l56.549,33.467c1.178,0.678,117.749,69.515,110.215,214.178l-0.011,0.26c-0.004,0.22-0.593,22.207-10.145,43.891   c-10.077,22.873-26.055,36.234-47.506,39.934c8.426-21.973,9.273-42.439,9.344-44.785c5.102-83.557-27.415-141.579-55.602-175.547   c-29.606-35.68-60.154-52.66-63.246-54.325l-47.694-28.336l-16.94,10.121l55.939,33.233l0.381,0.213   c0.295,0.156,29.822,15.968,58.207,50.175c38.111,45.928,55.48,100.954,51.625,163.551l-0.014,0.342   c-0.005,0.22-0.596,22.207-10.147,43.891c-0.348,0.788-0.726,1.524-1.087,2.29c-21.46-1.767-37.392-12.015-37.544-12.114   l-103.121-60.852l-16.965,10.137l110.733,65.333c2.042,1.311,16.496,10.229,36.938,13.715   c-12.314,15.303-29.292,22.861-50.765,22.498c-23.906-0.41-42.309-12.258-42.474-12.364l-102.549-60.434l-16.972,10.141   l110.172,64.912c2.517,1.615,23.613,14.616,51.526,15.095c0.605,0.01,1.203,0.015,1.805,0.015   c30.274-0.001,54.031-13.248,69.495-38.544c33.125-1.261,58.066-18.898,72.34-51.298c10.613-24.095,11.545-48.045,11.611-50.354   C711.697,574.895,679.242,516.716,651.271,482.176"
       id="path5206" /><path
       clip-path="url(#SVGID_2_)"
       fill="#FFFFFF"
       d="M357.96,527.524l-0.415,92.354l17.386-10.279l0.3-64.337   C369.702,540.07,363.872,534.17,357.96,527.524"
       id="path5208" /><path
       clip-path="url(#SVGID_2_)"
       fill="#FFFFFF"
       d="M292.897,658.098l17.361-10.264l0.229-197.063   c-9.687-24.563-16.521-53.39-17.282-86.425L292.897,658.098z"
       id="path5210" /></g></svg>