<?xml version="1.0" encoding="UTF-8" standalone="no"?>
<svg
   xmlns:dc="http://purl.org/dc/elements/1.1/"
   xmlns:cc="http://creativecommons.org/ns#"
   xmlns:rdf="http://www.w3.org/1999/02/22-rdf-syntax-ns#"
   xmlns:svg="http://www.w3.org/2000/svg"
   xmlns="http://www.w3.org/2000/svg"
   xmlns:sodipodi="http://sodipodi.sourceforge.net/DTD/sodipodi-0.dtd"
   xmlns:inkscape="http://www.inkscape.org/namespaces/inkscape"
   width="87.040001"
   height="34"
   viewBox="0 0 65.280001 25.499999"
   version="1.2"
   id="svg3390"
   inkscape:version="0.91+devel+osxmenu r12922"
   sodipodi:docname="logo-icon.svg">
  <metadata
     id="metadata3439">
    <rdf:RDF>
      <cc:Work
         rdf:about="">
        <dc:format>image/svg+xml</dc:format>
        <dc:type
           rdf:resource="http://purl.org/dc/dcmitype/StillImage" />
        <dc:title></dc:title>
      </cc:Work>
    </rdf:RDF>
  </metadata>
  <defs
     id="defs3437" />
  <sodipodi:namedview
     pagecolor="#ffffff"
     bordercolor="#666666"
     borderopacity="1"
     objecttolerance="10"
     gridtolerance="10"
     guidetolerance="10"
     inkscape:pageopacity="0"
     inkscape:pageshadow="2"
     inkscape:window-width="1370"
     inkscape:window-height="805"
     id="namedview3435"
     showgrid="false"
     inkscape:zoom="4.086"
     inkscape:cx="91.185945"
     inkscape:cy="13.787813"
     inkscape:window-x="1601"
     inkscape:window-y="135"
     inkscape:window-maximized="0"
     inkscape:current-layer="surface7788"
     units="px"
     fit-margin-top="0"
     fit-margin-left="0"
     fit-margin-right="0"
     fit-margin-bottom="0" />
  <g
     id="surface7788"
     transform="translate(0,-474.49997)">
    <rect
       style="fill:none;fill-opacity:1;stroke:none;stroke-width:0.07819912;stroke-miterlimit:4;stroke-dasharray:none;stroke-opacity:1"
       id="rect3441"
       width="65.279999"
       height="25.5"
       x="-4.4408921e-16"
       y="474.49997" />
    <g
       id="g4340"
       transform="matrix(0.54090277,0,0,0.54090277,-2.0150991,227.84566)">
      <g
         transform="matrix(0.1091158,0,0,0.1091158,-1.4111394,451.88003)"
         style="fill:#ffffff;fill-opacity:1"
         id="g4288">
        <g
           style="fill:#ffffff;fill-opacity:1"
           id="g4267">
          <path
             inkscape:connector-curvature="0"
             id="path3393"
             d="m 383.46875,138.98437 c 0,-1.29687 1.03906,-2.46875 2.47266,-2.46875 l 51.21875,0 c 1.42968,0 2.47265,1.17188 2.47265,2.46875 l 0,3.76954 c 0,1.30078 -1.04297,2.47265 -2.47265,2.47265 l -43.67969,0 0,35.6211 37.30859,0 c 1.30078,0 2.47266,1.16796 2.47266,2.46875 l 0,3.76953 c 0,1.30078 -1.17188,2.47265 -2.47266,2.47265 l -37.30859,0 0,35.48828 c 0,1.30079 -1.17188,2.47266 -2.47266,2.47266 l -5.0664,0 c -1.4336,0 -2.47266,-1.17187 -2.47266,-2.47266 z m 0,0"
             style="fill:#ffffff;fill-opacity:1;fill-rule:nonzero;stroke:none" />
          <path
             inkscape:connector-curvature="0"
             id="path3395"
             d="m 460.03516,138.98437 c 0,-1.29687 1.17187,-2.46875 2.47265,-2.46875 l 5.19922,0 c 1.30078,0 2.47266,1.17188 2.47266,2.46875 l 0,86.0625 c 0,1.30079 -1.17188,2.47266 -2.47266,2.47266 l -5.19922,0 c -1.30078,0 -2.47265,-1.17187 -2.47265,-2.47266 z m 0,0"
             style="fill:#ffffff;fill-opacity:1;fill-rule:nonzero;stroke:none" />
          <path
             inkscape:connector-curvature="0"
             id="path3397"
             d="m 491.49609,138.98437 c 0,-1.29687 1.03907,-2.46875 2.47266,-2.46875 l 51.21875,0 c 1.42969,0 2.47266,1.17188 2.47266,2.46875 l 0,3.76954 c 0,1.30078 -1.04297,2.47265 -2.47266,2.47265 l -43.67969,0 0,31.71875 37.3125,0 c 1.29688,0 2.46875,1.17188 2.46875,2.47266 l 0,3.76953 c 0,1.42969 -1.17187,2.46875 -2.46875,2.46875 l -37.3125,0 0,33.15234 43.67969,0 c 1.42969,0 2.47266,1.17188 2.47266,2.46875 l 0,3.76953 c 0,1.30079 -1.04297,2.47266 -2.47266,2.47266 l -51.21875,0 c -1.43359,0 -2.47266,-1.17187 -2.47266,-2.47266 z m 0,0"
             style="fill:#ffffff;fill-opacity:1;fill-rule:nonzero;stroke:none" />
          <path
             inkscape:connector-curvature="0"
             id="path3399"
             d="m 571.05469,138.98437 c 0,-1.29687 1.04297,-2.46875 2.47265,-2.46875 l 5.07032,0 c 1.30078,0 2.46875,1.17188 2.46875,2.46875 l 0,79.82422 37.4414,0 c 1.42969,0 2.47266,1.17188 2.47266,2.46875 l 0,3.76953 c 0,1.30079 -1.04297,2.47266 -2.47266,2.47266 l -44.98047,0 c -1.42968,0 -2.47265,-1.17187 -2.47265,-2.47266 z m 0,0"
             style="fill:#ffffff;fill-opacity:1;fill-rule:nonzero;stroke:none" />
          <path
             inkscape:connector-curvature="0"
             id="path3401"
             d="m 666.86719,218.54687 c 21.32031,0 36.79297,-15.20703 36.79297,-36.66015 0,-21.32031 -15.47266,-36.53125 -36.79297,-36.53125 l -19.5,0 0,73.1914 z m -29.38282,-79.5625 c 0,-1.29687 1.04297,-2.46875 2.34375,-2.46875 l 29.11719,0 c 25.09375,0 45.63281,20.41016 45.63281,45.3711 0,25.22265 -20.53906,45.63281 -45.63281,45.63281 l -29.11719,0 c -1.30078,0 -2.34375,-1.17187 -2.34375,-2.46875 z m 0,0"
             style="fill:#ffffff;fill-opacity:1;fill-rule:nonzero;stroke:none" />
          <path
             inkscape:connector-curvature="0"
             id="path3403"
             d="m 772.29687,135.21484 c 13.13282,0 22.6211,4.55078 31.46094,12.08985 1.03906,1.04297 1.17188,2.60156 0.13281,3.64062 l -3.51171,3.51172 c -1.03907,1.30078 -2.08204,1.16797 -3.38282,-0.13281 -6.75781,-5.84766 -15.98828,-9.75 -24.82812,-9.75 -20.54297,0 -36.27344,17.29297 -36.27344,37.4414 0,20.02344 15.73047,37.3125 36.27344,37.3125 11.30859,0 17.9414,-4.55078 24.82812,-9.75 1.30078,-1.03906 2.34375,-0.91015 3.1211,-0.39062 l 3.90234,3.51172 c 1.03906,0.77734 0.77734,2.59765 -0.12891,3.50781 -8.84375,8.58203 -20.02343,12.61328 -31.59375,12.61328 -26,0 -46.93359,-20.67187 -46.93359,-46.67187 0,-26.00391 20.93359,-46.9336 46.93359,-46.9336"
             style="fill:#ffffff;fill-opacity:1;fill-rule:nonzero;stroke:none" />
          <path
             inkscape:connector-curvature="0"
             id="path3405"
             d="m 856.79297,183.31641 c 10.01172,0 18.72265,-8.32032 18.72265,-18.98047 0,-9.87891 -8.71093,-18.33203 -18.72265,-18.33203 l -25.21875,0 0,37.3125 z m -35.48828,-44.33204 c 0,-1.29687 1.03906,-2.46875 2.46875,-2.46875 l 33.67187,0 c 15.60156,0 28.33985,12.21875 28.33985,27.69141 0,11.96094 -7.92969,21.96875 -19.24219,26.51953 l 17.8125,33.02344 c 0.91015,1.6875 0,3.76953 -2.21094,3.76953 l -6.62891,0 c -1.16796,0 -1.82031,-0.65234 -2.07812,-1.17187 l -17.29297,-34.44922 -24.82812,0 0,33.14843 c 0,1.30079 -1.17188,2.47266 -2.47266,2.47266 l -5.07031,0 c -1.42969,0 -2.46875,-1.17187 -2.46875,-2.47266 z m 0,0"
             style="fill:#ffffff;fill-opacity:1;fill-rule:nonzero;stroke:none" />
          <path
             inkscape:connector-curvature="0"
             id="path3407"
             d="m 953.90625,196.57812 c -6.37109,-14.17187 -12.60938,-28.47265 -18.98047,-42.64453 l -1.04297,0 -18.98047,42.64453 z m -61.75391,27.5625 39.52344,-87.49609 c 0.38672,-0.77734 1.03906,-1.42969 2.20703,-1.42969 l 1.30078,0 c 1.17188,0 1.82032,0.65235 2.21094,1.42969 l 39.26172,87.49609 c 0.77734,1.6875 -0.26172,3.37891 -2.21094,3.37891 l -5.19922,0 c -1.17187,0 -1.94922,-0.78125 -2.21093,-1.42969 l -9.6211,-21.45312 -46.15234,0 -9.48828,21.45312 c -0.26172,0.64844 -1.03907,1.42969 -2.21094,1.42969 l -5.19922,0 c -1.94922,0 -2.98828,-1.69141 -2.21094,-3.37891"
             style="fill:#ffffff;fill-opacity:1;fill-rule:nonzero;stroke:none" />
          <path
             inkscape:connector-curvature="0"
             id="path3409"
             d="m 985.62109,138.98437 c 0,-1.29687 1.03907,-2.46875 2.47266,-2.46875 l 51.21875,0 c 1.4297,0 2.4727,1.17188 2.4727,2.46875 l 0,3.76954 c 0,1.30078 -1.043,2.47265 -2.4727,2.47265 l -43.67969,0 0,35.6211 37.31249,0 c 1.2969,0 2.4688,1.16796 2.4688,2.46875 l 0,3.76953 c 0,1.30078 -1.1719,2.47265 -2.4688,2.47265 l -37.31249,0 0,35.48828 c 0,1.30079 -1.16797,2.47266 -2.46875,2.47266 l -5.07031,0 c -1.43359,0 -2.47266,-1.17187 -2.47266,-2.47266 z m 0,0"
             style="fill:#ffffff;fill-opacity:1;fill-rule:nonzero;stroke:none" />
          <path
             inkscape:connector-curvature="0"
             id="path3411"
             d="m 1077.6602,145.22656 -22.6211,0 c -1.4297,0 -2.4688,-1.17187 -2.4688,-2.47265 l 0,-3.76954 c 0,-1.29687 1.0391,-2.46875 2.4688,-2.46875 l 55.1211,0 c 1.4336,0 2.4726,1.17188 2.4726,2.46875 l 0,3.76954 c 0,1.30078 -1.039,2.47265 -2.4726,2.47265 l -22.6172,0 0,79.82031 c 0,1.30079 -1.1719,2.47266 -2.4727,2.47266 l -4.9375,0 c -1.3008,0 -2.4726,-1.17187 -2.4726,-2.47266 z m 0,0"
             style="fill:#ffffff;fill-opacity:1;fill-rule:nonzero;stroke:none" />
        </g>
        <g
           style="fill:#ffffff;fill-opacity:1"
           id="g4279">
          <path
             inkscape:connector-curvature="0"
             id="path3413"
             d="m 377.61719,343.86719 c 0.65234,-0.77735 1.30078,-1.6875 1.95312,-2.46875 1.29688,-1.69141 2.73047,-2.73047 4.54688,-1.17188 0.91015,0.78125 10.40234,9.88281 21.97265,9.88281 10.53125,0 17.42188,-6.63281 17.42188,-14.30078 0,-8.97265 -7.80078,-14.30078 -22.75,-20.54297 -14.30078,-6.23828 -22.88281,-12.08984 -22.88281,-26.91015 0,-8.83985 7.01953,-23.14063 27.6914,-23.14063 12.73828,0 22.23047,6.63282 22.23047,6.63282 0.78125,0.38671 2.33984,1.94921 0.78125,4.41796 -0.51953,0.78125 -1.03906,1.69141 -1.5625,2.46875 -1.16797,1.82032 -2.46875,2.33985 -4.54687,1.17188 -0.91016,-0.51953 -9.10157,-5.98047 -17.03125,-5.98047 -13.78125,0 -17.94141,8.83984 -17.94141,14.30078 0,8.71094 6.62891,13.78125 17.55078,18.32813 17.55078,7.15234 28.85938,13.78125 28.85938,28.86328 0,13.51953 -12.86719,23.40234 -28.07813,23.40234 -15.34375,0 -25.74219,-8.97265 -27.43359,-10.53125 -1.03907,-0.91015 -2.33985,-1.95312 -0.78125,-4.42187"
             style="fill:#ffffff;fill-opacity:1;fill-rule:nonzero;stroke:none" />
          <path
             inkscape:connector-curvature="0"
             id="path3415"
             d="m 465.62891,275.22656 -22.6211,0 c -1.42969,0 -2.46875,-1.17187 -2.46875,-2.47265 l 0,-3.76954 c 0,-1.29687 1.03906,-2.46875 2.46875,-2.46875 l 55.1211,0 c 1.42968,0 2.46875,1.17188 2.46875,2.46875 l 0,3.76954 c 0,1.30078 -1.03907,2.47265 -2.46875,2.47265 l -22.6211,0 0,79.82031 c 0,1.30079 -1.16797,2.47266 -2.46875,2.47266 l -4.9414,0 c -1.30079,0 -2.46875,-1.17187 -2.46875,-2.47266 z m 0,0"
             style="fill:#ffffff;fill-opacity:1;fill-rule:nonzero;stroke:none" />
          <path
             inkscape:connector-curvature="0"
             id="path3417"
             d="m 511.12891,268.98437 c 0,-1.29687 1.16796,-2.46875 2.46875,-2.46875 l 4.9414,0 c 1.42969,0 2.46875,1.17188 2.46875,2.46875 l 0,54.21485 c 0,14.82031 9.23047,26.38672 24.44141,26.38672 15.33984,0 24.69922,-11.3086 24.69922,-26.12891 l 0,-54.47266 c 0,-1.29687 1.04297,-2.46875 2.47265,-2.46875 l 4.9375,0 c 1.30078,0 2.47266,1.17188 2.47266,2.46875 l 0,54.99219 c 0,19.76172 -14.04297,34.84375 -34.58203,34.84375 -20.41016,0 -34.32031,-15.08203 -34.32031,-34.84375 z m 0,0"
             style="fill:#ffffff;fill-opacity:1;fill-rule:nonzero;stroke:none" />
          <path
             inkscape:connector-curvature="0"
             id="path3419"
             d="m 626.95703,348.54687 c 21.32031,0 36.79297,-15.20703 36.79297,-36.66015 0,-21.32031 -15.47266,-36.53125 -36.79297,-36.53125 l -19.5,0 0,73.1914 z m -29.38281,-79.5625 c 0,-1.29687 1.04297,-2.46875 2.33984,-2.46875 l 29.1211,0 c 25.09375,0 45.63281,20.41016 45.63281,45.3711 0,25.22265 -20.53906,45.63281 -45.63281,45.63281 l -29.1211,0 c -1.29687,0 -2.33984,-1.17187 -2.33984,-2.47266 z m 0,0"
             style="fill:#ffffff;fill-opacity:1;fill-rule:nonzero;stroke:none" />
          <path
             inkscape:connector-curvature="0"
             id="path3421"
             d="m 689.48437,268.98437 c 0,-1.29687 1.17188,-2.46875 2.47266,-2.46875 l 5.19922,0 c 1.30078,0 2.46875,1.17188 2.46875,2.46875 l 0,86.0625 c 0,1.30079 -1.16797,2.47266 -2.46875,2.47266 l -5.19922,0 c -1.30078,0 -2.47266,-1.17187 -2.47266,-2.47266 z m 0,0"
             style="fill:#ffffff;fill-opacity:1;fill-rule:nonzero;stroke:none" />
          <path
             inkscape:connector-curvature="0"
             id="path3423"
             d="m 763.58594,349.71875 c 20.67187,0 37.70312,-16.90234 37.70312,-37.57031 0,-20.67188 -17.03125,-37.83203 -37.70312,-37.83203 -20.67188,0 -37.57032,17.16015 -37.57032,37.83203 0,20.66797 16.89844,37.57031 37.57032,37.57031 m 0,-84.50391 c 26.0039,0 46.80468,20.92969 46.80468,46.9336 0,26 -20.80078,46.67187 -46.80468,46.67187 -26,0 -46.67188,-20.67187 -46.67188,-46.67187 0,-26.00391 20.67188,-46.9336 46.67188,-46.9336"
             style="fill:#ffffff;fill-opacity:1;fill-rule:nonzero;stroke:none" />
          <path
             inkscape:connector-curvature="0"
             id="path3425"
             d="m 824.42578,343.86719 c 0.64844,-0.77735 1.30078,-1.6875 1.94922,-2.46875 1.30078,-1.69141 2.73047,-2.73047 4.55078,-1.17188 0.91016,0.78125 10.39844,9.88281 21.97266,9.88281 10.52734,0 17.41797,-6.63281 17.41797,-14.30078 0,-8.97265 -7.80079,-14.30078 -22.75,-20.54297 -14.30079,-6.23828 -22.87891,-12.08984 -22.87891,-26.91015 0,-8.83985 7.01562,-23.14063 27.6875,-23.14063 12.74219,0 22.23437,6.63282 22.23437,6.63282 0.77735,0.38671 2.33594,1.94921 0.77735,4.41796 -0.51953,0.78125 -1.03906,1.69141 -1.5586,2.46875 -1.17187,1.82032 -2.47265,2.33985 -4.55078,1.17188 -0.91015,-0.51953 -9.10156,-5.98047 -17.03125,-5.98047 -13.78125,0 -17.9414,8.83984 -17.9414,14.30078 0,8.71094 6.63281,13.78125 17.55078,18.32813 17.55078,7.15234 28.86328,13.78125 28.86328,28.86328 0,13.51953 -12.87109,23.40234 -28.08203,23.40234 -15.33985,0 -25.74219,-8.97265 -27.4336,-10.53125 -1.03906,-0.91015 -2.33984,-1.95312 -0.77734,-4.42187"
             style="fill:#ffffff;fill-opacity:1;fill-rule:nonzero;stroke:none" />
        </g>
      </g>
      <path
         inkscape:connector-curvature="0"
         id="path3427"
         d="m 16.930117,463.82905 c 1.350735,0.0235 2.390319,0.69263 2.399696,0.6986 l 7.189708,4.28408 0.961582,-0.56817 -7.622334,-4.54109 c -0.136821,-0.0878 -1.330701,-0.82647 -2.911602,-0.85332 -0.03453,-8.6e-4 -0.0682,-8.6e-4 -0.101865,-8.6e-4 -1.710474,0 -3.052684,0.74846 -3.926036,2.17763 -1.871592,0.0712 -3.2807203,1.06729 -4.086728,2.89753 -0.6001369,1.36183 -0.6525635,2.71554 -0.6559733,2.84511 -0.2365598,4.57733 1.597097,7.86401 3.1771453,9.81488 1.683623,2.07918 3.409015,3.10299 3.534328,3.17587 l 1.92274,1.15893 0.958173,-0.56689 -2.386056,-1.43854 c -0.01705,-0.009 -1.694278,-0.99312 -3.291375,-2.97597 -2.1260531,-2.63966 -3.1136363,-5.70897 -2.9358969,-9.12394 l 8.524e-4,-0.0141 c 0.00426,-0.18371 0.1423621,-4.19456 3.2568505,-4.73631 -0.475677,1.24119 -0.523841,2.39714 -0.528103,2.53012 -0.288135,4.72053 1.548933,7.99828 3.141341,9.91718 1.666148,2.00799 3.385147,2.96787 3.570986,3.06803 l 1.905689,1.15509 0.956468,-0.56646 -2.365169,-1.43385 -0.02472,-0.0136 c -0.01705,-0.009 -1.712181,-0.92239 -3.314818,-2.86643 -2.135005,-2.58852 -3.10767,-5.68681 -2.890716,-9.20793 l 8.52e-4,-0.0188 c 0.0026,-0.10231 0.04603,-1.39379 0.622301,-2.61025 1.218602,0.0963 2.124775,0.67941 2.133299,0.68495 l 7.202921,4.29601 0.960731,-0.56774 -7.634269,-4.55303 c -0.111252,-0.072 -0.931321,-0.57925 -2.092381,-0.7766 0.602694,-0.73995 1.50844,-1.29447 2.872387,-1.27018"
         style="fill:#00ffaa;fill-opacity:1;fill-rule:nonzero;stroke:none;stroke-width:0.1091158" />
      <path
         inkscape:connector-curvature="0"
         id="path3429"
         d="m 28.388982,478.56949 c -1.711329,-2.11284 -3.465706,-3.1358 -3.53433,-3.17544 l -2.730879,-1.61628 -0.957747,0.57244 3.194621,1.89034 c 0.06649,0.0384 6.651802,3.92731 6.225995,12.09949 l -4.27e-4,0.0149 c -4.26e-4,0.0123 -0.03367,1.25441 -0.573284,2.4794 -0.569021,1.29233 -1.471784,2.0472 -2.683567,2.25605 0.476103,-1.24162 0.523841,-2.39756 0.527678,-2.53011 0.28856,-4.72054 -1.548507,-7.99829 -3.140916,-9.91719 -1.672541,-2.01566 -3.398359,-2.9751 -3.573116,-3.06887 l -2.694223,-1.60094 -0.956894,0.57201 3.160096,1.87713 0.02174,0.0123 c 0.01663,0.008 1.684474,0.90191 3.287965,2.83446 2.152906,2.59448 3.134521,5.703 2.916717,9.23946 l -8.53e-4,0.0191 c -4.26e-4,0.0123 -0.03367,1.2544 -0.573284,2.47939 -0.01961,0.0448 -0.04091,0.0861 -0.06138,0.12958 -1.212634,-0.0997 -2.112412,-0.679 -2.120937,-0.68453 l -5.825761,-3.43757 -0.958172,0.57242 6.255403,3.69077 c 0.11551,0.0741 0.931747,0.57797 2.086839,0.77488 -0.695613,0.86441 -1.655065,1.29149 -2.867699,1.27104 -1.350734,-0.023 -2.390317,-0.69221 -2.399696,-0.6986 l -5.793365,-3.41371 -0.9586,0.57286 6.223863,3.66689 c 0.142362,0.0912 1.33411,0.82561 2.910749,0.85289 0.0341,4.3e-4 0.0682,8.5e-4 0.101865,8.5e-4 1.710476,0 3.052684,-0.74846 3.926037,-2.17762 1.871591,-0.0712 3.280294,-1.06772 4.086728,-2.89796 0.599711,-1.36097 0.652137,-2.71426 0.655973,-2.84469 0.23656,-4.57732 -1.597097,-7.86401 -3.177144,-9.8153"
         style="fill:#f7aa9f;fill-opacity:1;fill-rule:nonzero;stroke:none;stroke-width:0.1091158" />
      <path
         inkscape:connector-curvature="0"
         id="path3431"
         d="m 11.819151,481.13158 -0.02344,5.2171 0.982042,-0.58053 0.01705,-3.63449 c -0.312429,-0.29325 -0.641909,-0.62699 -0.975649,-1.00208"
         style="fill:#ffffff;fill-opacity:1;fill-rule:nonzero;stroke:none;stroke-width:0.1091158" />
      <path
         inkscape:connector-curvature="0"
         id="path3433"
         d="m 8.1433125,488.50798 0.9807634,-0.5801 0.013214,-11.13237 C 8.5900052,475.40769 8.2038377,473.77948 8.160788,471.913 Z m 0,0"
         style="fill:#ffffff;fill-opacity:1;fill-rule:nonzero;stroke:none;stroke-width:0.1091158" />
    </g>
  </g>
</svg>
