<?xml version="1.0" encoding="UTF-8" standalone="no"?>
<svg
   xmlns:dc="http://purl.org/dc/elements/1.1/"
   xmlns:cc="http://creativecommons.org/ns#"
   xmlns:rdf="http://www.w3.org/1999/02/22-rdf-syntax-ns#"
   xmlns:svg="http://www.w3.org/2000/svg"
   xmlns="http://www.w3.org/2000/svg"
   xmlns:sodipodi="http://sodipodi.sourceforge.net/DTD/sodipodi-0.dtd"
   xmlns:inkscape="http://www.inkscape.org/namespaces/inkscape"
   width="1280pt"
   height="500pt"
   viewBox="0 0 1280 500"
   version="1.2"
   id="svg3390"
   inkscape:version="0.91+devel+osxmenu r12922"
   sodipodi:docname="fieldcraft-outline-colours-logo.svg">
  <metadata
     id="metadata3439">
    <rdf:RDF>
      <cc:Work
         rdf:about="">
        <dc:format>image/svg+xml</dc:format>
        <dc:type
           rdf:resource="http://purl.org/dc/dcmitype/StillImage" />
        <dc:title></dc:title>
      </cc:Work>
    </rdf:RDF>
  </metadata>
  <defs
     id="defs3437" />
  <sodipodi:namedview
     pagecolor="#ffffff"
     bordercolor="#666666"
     borderopacity="1"
     objecttolerance="10"
     gridtolerance="10"
     guidetolerance="10"
     inkscape:pageopacity="0"
     inkscape:pageshadow="2"
     inkscape:window-width="1370"
     inkscape:window-height="805"
     id="namedview3435"
     showgrid="false"
     inkscape:zoom="0.51075"
     inkscape:cx="890.06374"
     inkscape:cy="154.90709"
     inkscape:window-x="1817"
     inkscape:window-y="514"
     inkscape:window-maximized="0"
     inkscape:current-layer="surface7788" />
  <g
     id="surface7788">
    <rect
       style="fill:#060660;fill-opacity:1;stroke:none;stroke-width:1.53331614;stroke-miterlimit:4;stroke-dasharray:none;stroke-opacity:1"
       id="rect3441"
       width="1280"
       height="500"
       x="-4.4408921e-16"
       y="-2.6941299e-05" />
    <g
       id="g6798">
      <g
         style="fill:#ffffff;fill-opacity:1"
         id="g4288">
        <g
           style="fill:#ffffff;fill-opacity:1"
           id="g4267">
          <path
             inkscape:connector-curvature="0"
             id="path3393"
             d="m 383.46875,138.98437 c 0,-1.29687 1.03906,-2.46875 2.47266,-2.46875 l 51.21875,0 c 1.42968,0 2.47265,1.17188 2.47265,2.46875 l 0,3.76954 c 0,1.30078 -1.04297,2.47265 -2.47265,2.47265 l -43.67969,0 0,35.6211 37.30859,0 c 1.30078,0 2.47266,1.16796 2.47266,2.46875 l 0,3.76953 c 0,1.30078 -1.17188,2.47265 -2.47266,2.47265 l -37.30859,0 0,35.48828 c 0,1.30079 -1.17188,2.47266 -2.47266,2.47266 l -5.0664,0 c -1.4336,0 -2.47266,-1.17187 -2.47266,-2.47266 z m 0,0"
             style="fill:#ffffff;fill-opacity:1;fill-rule:nonzero;stroke:none" />
          <path
             inkscape:connector-curvature="0"
             id="path3395"
             d="m 460.03516,138.98437 c 0,-1.29687 1.17187,-2.46875 2.47265,-2.46875 l 5.19922,0 c 1.30078,0 2.47266,1.17188 2.47266,2.46875 l 0,86.0625 c 0,1.30079 -1.17188,2.47266 -2.47266,2.47266 l -5.19922,0 c -1.30078,0 -2.47265,-1.17187 -2.47265,-2.47266 z m 0,0"
             style="fill:#ffffff;fill-opacity:1;fill-rule:nonzero;stroke:none" />
          <path
             inkscape:connector-curvature="0"
             id="path3397"
             d="m 491.49609,138.98437 c 0,-1.29687 1.03907,-2.46875 2.47266,-2.46875 l 51.21875,0 c 1.42969,0 2.47266,1.17188 2.47266,2.46875 l 0,3.76954 c 0,1.30078 -1.04297,2.47265 -2.47266,2.47265 l -43.67969,0 0,31.71875 37.3125,0 c 1.29688,0 2.46875,1.17188 2.46875,2.47266 l 0,3.76953 c 0,1.42969 -1.17187,2.46875 -2.46875,2.46875 l -37.3125,0 0,33.15234 43.67969,0 c 1.42969,0 2.47266,1.17188 2.47266,2.46875 l 0,3.76953 c 0,1.30079 -1.04297,2.47266 -2.47266,2.47266 l -51.21875,0 c -1.43359,0 -2.47266,-1.17187 -2.47266,-2.47266 z m 0,0"
             style="fill:#ffffff;fill-opacity:1;fill-rule:nonzero;stroke:none" />
          <path
             inkscape:connector-curvature="0"
             id="path3399"
             d="m 571.05469,138.98437 c 0,-1.29687 1.04297,-2.46875 2.47265,-2.46875 l 5.07032,0 c 1.30078,0 2.46875,1.17188 2.46875,2.46875 l 0,79.82422 37.4414,0 c 1.42969,0 2.47266,1.17188 2.47266,2.46875 l 0,3.76953 c 0,1.30079 -1.04297,2.47266 -2.47266,2.47266 l -44.98047,0 c -1.42968,0 -2.47265,-1.17187 -2.47265,-2.47266 z m 0,0"
             style="fill:#ffffff;fill-opacity:1;fill-rule:nonzero;stroke:none" />
          <path
             inkscape:connector-curvature="0"
             id="path3401"
             d="m 666.86719,218.54687 c 21.32031,0 36.79297,-15.20703 36.79297,-36.66015 0,-21.32031 -15.47266,-36.53125 -36.79297,-36.53125 l -19.5,0 0,73.1914 z m -29.38282,-79.5625 c 0,-1.29687 1.04297,-2.46875 2.34375,-2.46875 l 29.11719,0 c 25.09375,0 45.63281,20.41016 45.63281,45.3711 0,25.22265 -20.53906,45.63281 -45.63281,45.63281 l -29.11719,0 c -1.30078,0 -2.34375,-1.17187 -2.34375,-2.46875 z m 0,0"
             style="fill:#ffffff;fill-opacity:1;fill-rule:nonzero;stroke:none" />
          <path
             inkscape:connector-curvature="0"
             id="path3403"
             d="m 772.29687,135.21484 c 13.13282,0 22.6211,4.55078 31.46094,12.08985 1.03906,1.04297 1.17188,2.60156 0.13281,3.64062 l -3.51171,3.51172 c -1.03907,1.30078 -2.08204,1.16797 -3.38282,-0.13281 -6.75781,-5.84766 -15.98828,-9.75 -24.82812,-9.75 -20.54297,0 -36.27344,17.29297 -36.27344,37.4414 0,20.02344 15.73047,37.3125 36.27344,37.3125 11.30859,0 17.9414,-4.55078 24.82812,-9.75 1.30078,-1.03906 2.34375,-0.91015 3.1211,-0.39062 l 3.90234,3.51172 c 1.03906,0.77734 0.77734,2.59765 -0.12891,3.50781 -8.84375,8.58203 -20.02343,12.61328 -31.59375,12.61328 -26,0 -46.93359,-20.67187 -46.93359,-46.67187 0,-26.00391 20.93359,-46.9336 46.93359,-46.9336"
             style="fill:#ffffff;fill-opacity:1;fill-rule:nonzero;stroke:none" />
          <path
             inkscape:connector-curvature="0"
             id="path3405"
             d="m 856.79297,183.31641 c 10.01172,0 18.72265,-8.32032 18.72265,-18.98047 0,-9.87891 -8.71093,-18.33203 -18.72265,-18.33203 l -25.21875,0 0,37.3125 z m -35.48828,-44.33204 c 0,-1.29687 1.03906,-2.46875 2.46875,-2.46875 l 33.67187,0 c 15.60156,0 28.33985,12.21875 28.33985,27.69141 0,11.96094 -7.92969,21.96875 -19.24219,26.51953 l 17.8125,33.02344 c 0.91015,1.6875 0,3.76953 -2.21094,3.76953 l -6.62891,0 c -1.16796,0 -1.82031,-0.65234 -2.07812,-1.17187 l -17.29297,-34.44922 -24.82812,0 0,33.14843 c 0,1.30079 -1.17188,2.47266 -2.47266,2.47266 l -5.07031,0 c -1.42969,0 -2.46875,-1.17187 -2.46875,-2.47266 z m 0,0"
             style="fill:#ffffff;fill-opacity:1;fill-rule:nonzero;stroke:none" />
          <path
             inkscape:connector-curvature="0"
             id="path3407"
             d="m 953.90625,196.57812 c -6.37109,-14.17187 -12.60938,-28.47265 -18.98047,-42.64453 l -1.04297,0 -18.98047,42.64453 z m -61.75391,27.5625 39.52344,-87.49609 c 0.38672,-0.77734 1.03906,-1.42969 2.20703,-1.42969 l 1.30078,0 c 1.17188,0 1.82032,0.65235 2.21094,1.42969 l 39.26172,87.49609 c 0.77734,1.6875 -0.26172,3.37891 -2.21094,3.37891 l -5.19922,0 c -1.17187,0 -1.94922,-0.78125 -2.21093,-1.42969 l -9.6211,-21.45312 -46.15234,0 -9.48828,21.45312 c -0.26172,0.64844 -1.03907,1.42969 -2.21094,1.42969 l -5.19922,0 c -1.94922,0 -2.98828,-1.69141 -2.21094,-3.37891"
             style="fill:#ffffff;fill-opacity:1;fill-rule:nonzero;stroke:none" />
          <path
             inkscape:connector-curvature="0"
             id="path3409"
             d="m 985.62109,138.98437 c 0,-1.29687 1.03907,-2.46875 2.47266,-2.46875 l 51.21875,0 c 1.4297,0 2.4727,1.17188 2.4727,2.46875 l 0,3.76954 c 0,1.30078 -1.043,2.47265 -2.4727,2.47265 l -43.67969,0 0,35.6211 37.31249,0 c 1.2969,0 2.4688,1.16796 2.4688,2.46875 l 0,3.76953 c 0,1.30078 -1.1719,2.47265 -2.4688,2.47265 l -37.31249,0 0,35.48828 c 0,1.30079 -1.16797,2.47266 -2.46875,2.47266 l -5.07031,0 c -1.43359,0 -2.47266,-1.17187 -2.47266,-2.47266 z m 0,0"
             style="fill:#ffffff;fill-opacity:1;fill-rule:nonzero;stroke:none" />
          <path
             inkscape:connector-curvature="0"
             id="path3411"
             d="m 1077.6602,145.22656 -22.6211,0 c -1.4297,0 -2.4688,-1.17187 -2.4688,-2.47265 l 0,-3.76954 c 0,-1.29687 1.0391,-2.46875 2.4688,-2.46875 l 55.1211,0 c 1.4336,0 2.4726,1.17188 2.4726,2.46875 l 0,3.76954 c 0,1.30078 -1.039,2.47265 -2.4726,2.47265 l -22.6172,0 0,79.82031 c 0,1.30079 -1.1719,2.47266 -2.4727,2.47266 l -4.9375,0 c -1.3008,0 -2.4726,-1.17187 -2.4726,-2.47266 z m 0,0"
             style="fill:#ffffff;fill-opacity:1;fill-rule:nonzero;stroke:none" />
        </g>
        <g
           style="fill:#ffffff;fill-opacity:1"
           id="g4279">
          <path
             inkscape:connector-curvature="0"
             id="path3413"
             d="m 377.61719,343.86719 c 0.65234,-0.77735 1.30078,-1.6875 1.95312,-2.46875 1.29688,-1.69141 2.73047,-2.73047 4.54688,-1.17188 0.91015,0.78125 10.40234,9.88281 21.97265,9.88281 10.53125,0 17.42188,-6.63281 17.42188,-14.30078 0,-8.97265 -7.80078,-14.30078 -22.75,-20.54297 -14.30078,-6.23828 -22.88281,-12.08984 -22.88281,-26.91015 0,-8.83985 7.01953,-23.14063 27.6914,-23.14063 12.73828,0 22.23047,6.63282 22.23047,6.63282 0.78125,0.38671 2.33984,1.94921 0.78125,4.41796 -0.51953,0.78125 -1.03906,1.69141 -1.5625,2.46875 -1.16797,1.82032 -2.46875,2.33985 -4.54687,1.17188 -0.91016,-0.51953 -9.10157,-5.98047 -17.03125,-5.98047 -13.78125,0 -17.94141,8.83984 -17.94141,14.30078 0,8.71094 6.62891,13.78125 17.55078,18.32813 17.55078,7.15234 28.85938,13.78125 28.85938,28.86328 0,13.51953 -12.86719,23.40234 -28.07813,23.40234 -15.34375,0 -25.74219,-8.97265 -27.43359,-10.53125 -1.03907,-0.91015 -2.33985,-1.95312 -0.78125,-4.42187"
             style="fill:#ffffff;fill-opacity:1;fill-rule:nonzero;stroke:none" />
          <path
             inkscape:connector-curvature="0"
             id="path3415"
             d="m 465.62891,275.22656 -22.6211,0 c -1.42969,0 -2.46875,-1.17187 -2.46875,-2.47265 l 0,-3.76954 c 0,-1.29687 1.03906,-2.46875 2.46875,-2.46875 l 55.1211,0 c 1.42968,0 2.46875,1.17188 2.46875,2.46875 l 0,3.76954 c 0,1.30078 -1.03907,2.47265 -2.46875,2.47265 l -22.6211,0 0,79.82031 c 0,1.30079 -1.16797,2.47266 -2.46875,2.47266 l -4.9414,0 c -1.30079,0 -2.46875,-1.17187 -2.46875,-2.47266 z m 0,0"
             style="fill:#ffffff;fill-opacity:1;fill-rule:nonzero;stroke:none" />
          <path
             inkscape:connector-curvature="0"
             id="path3417"
             d="m 511.12891,268.98437 c 0,-1.29687 1.16796,-2.46875 2.46875,-2.46875 l 4.9414,0 c 1.42969,0 2.46875,1.17188 2.46875,2.46875 l 0,54.21485 c 0,14.82031 9.23047,26.38672 24.44141,26.38672 15.33984,0 24.69922,-11.3086 24.69922,-26.12891 l 0,-54.47266 c 0,-1.29687 1.04297,-2.46875 2.47265,-2.46875 l 4.9375,0 c 1.30078,0 2.47266,1.17188 2.47266,2.46875 l 0,54.99219 c 0,19.76172 -14.04297,34.84375 -34.58203,34.84375 -20.41016,0 -34.32031,-15.08203 -34.32031,-34.84375 z m 0,0"
             style="fill:#ffffff;fill-opacity:1;fill-rule:nonzero;stroke:none" />
          <path
             inkscape:connector-curvature="0"
             id="path3419"
             d="m 626.95703,348.54687 c 21.32031,0 36.79297,-15.20703 36.79297,-36.66015 0,-21.32031 -15.47266,-36.53125 -36.79297,-36.53125 l -19.5,0 0,73.1914 z m -29.38281,-79.5625 c 0,-1.29687 1.04297,-2.46875 2.33984,-2.46875 l 29.1211,0 c 25.09375,0 45.63281,20.41016 45.63281,45.3711 0,25.22265 -20.53906,45.63281 -45.63281,45.63281 l -29.1211,0 c -1.29687,0 -2.33984,-1.17187 -2.33984,-2.47266 z m 0,0"
             style="fill:#ffffff;fill-opacity:1;fill-rule:nonzero;stroke:none" />
          <path
             inkscape:connector-curvature="0"
             id="path3421"
             d="m 689.48437,268.98437 c 0,-1.29687 1.17188,-2.46875 2.47266,-2.46875 l 5.19922,0 c 1.30078,0 2.46875,1.17188 2.46875,2.46875 l 0,86.0625 c 0,1.30079 -1.16797,2.47266 -2.46875,2.47266 l -5.19922,0 c -1.30078,0 -2.47266,-1.17187 -2.47266,-2.47266 z m 0,0"
             style="fill:#ffffff;fill-opacity:1;fill-rule:nonzero;stroke:none" />
          <path
             inkscape:connector-curvature="0"
             id="path3423"
             d="m 763.58594,349.71875 c 20.67187,0 37.70312,-16.90234 37.70312,-37.57031 0,-20.67188 -17.03125,-37.83203 -37.70312,-37.83203 -20.67188,0 -37.57032,17.16015 -37.57032,37.83203 0,20.66797 16.89844,37.57031 37.57032,37.57031 m 0,-84.50391 c 26.0039,0 46.80468,20.92969 46.80468,46.9336 0,26 -20.80078,46.67187 -46.80468,46.67187 -26,0 -46.67188,-20.67187 -46.67188,-46.67187 0,-26.00391 20.67188,-46.9336 46.67188,-46.9336"
             style="fill:#ffffff;fill-opacity:1;fill-rule:nonzero;stroke:none" />
          <path
             inkscape:connector-curvature="0"
             id="path3425"
             d="m 824.42578,343.86719 c 0.64844,-0.77735 1.30078,-1.6875 1.94922,-2.46875 1.30078,-1.69141 2.73047,-2.73047 4.55078,-1.17188 0.91016,0.78125 10.39844,9.88281 21.97266,9.88281 10.52734,0 17.41797,-6.63281 17.41797,-14.30078 0,-8.97265 -7.80079,-14.30078 -22.75,-20.54297 -14.30079,-6.23828 -22.87891,-12.08984 -22.87891,-26.91015 0,-8.83985 7.01562,-23.14063 27.6875,-23.14063 12.74219,0 22.23437,6.63282 22.23437,6.63282 0.77735,0.38671 2.33594,1.94921 0.77735,4.41796 -0.51953,0.78125 -1.03906,1.69141 -1.5586,2.46875 -1.17187,1.82032 -2.47265,2.33985 -4.55078,1.17188 -0.91015,-0.51953 -9.10156,-5.98047 -17.03125,-5.98047 -13.78125,0 -17.9414,8.83984 -17.9414,14.30078 0,8.71094 6.63281,13.78125 17.55078,18.32813 17.55078,7.15234 28.86328,13.78125 28.86328,28.86328 0,13.51953 -12.87109,23.40234 -28.08203,23.40234 -15.33985,0 -25.74219,-8.97265 -27.4336,-10.53125 -1.03906,-0.91015 -2.33984,-1.95312 -0.77734,-4.42187"
             style="fill:#ffffff;fill-opacity:1;fill-rule:nonzero;stroke:none" />
        </g>
      </g>
      <g
         id="g6757">
        <path
           style="fill:#00ffaa;fill-opacity:1;fill-rule:nonzero;stroke:none"
           d="m 168.08984,109.50781 c 12.37891,0.21485 21.90625,6.34766 21.99219,6.40235 l 65.89063,39.26171 8.8125,-5.20703 -69.85547,-41.61718 c -1.25391,-0.80469 -12.19532,-7.57422 -26.6836,-7.82032 -0.3164,-0.008 -0.625,-0.008 -0.93359,-0.008 -15.67578,0 -27.97656,6.85938 -35.98047,19.95703 -17.15234,0.65235 -30.0664,9.78125 -37.453124,26.55469 -5.5,12.48047 -5.980468,24.88672 -6.011718,26.07422 -2.167969,41.94922 14.636722,72.07031 29.117192,89.94922 15.42968,19.05468 31.24218,28.4375 32.39062,29.10547 l 17.62109,10.62109 8.78125,-5.19531 -21.86718,-13.1836 c -0.15625,-0.0898 -15.52735,-9.10156 -30.16407,-27.27343 -19.48437,-24.19122 -28.535152,-52.32013 -26.906246,-83.617 l 0.0078,-0.12891 c 0.03906,-1.68359 1.304688,-38.4414 29.847656,-43.40625 -4.35937,11.375 -4.80078,21.96875 -4.83984,23.1875 -2.64063,43.26172 14.19531,73.30078 28.78906,90.88672 15.26953,18.40234 31.02344,27.19922 32.72656,28.11719 l 17.46485,10.58594 8.76562,-5.19141 -21.67578,-13.14063 -0.22656,-0.125 c -0.15625,-0.082 -15.69141,-8.45312 -30.37891,-26.26953 -19.5664,-23.72265 -28.48047,-52.11718 -26.49219,-84.38672 l 0.008,-0.17187 c 0.0234,-0.9375 0.42187,-12.77344 5.70312,-23.92188 11.16797,0.88282 19.47266,6.22657 19.55078,6.27735 l 66.01172,39.37109 8.80469,-5.20312 -69.96484,-41.72657 c -1.01954,-0.66015 -8.53516,-5.30859 -19.17579,-7.11718 5.52344,-6.78125 13.82422,-11.86328 26.32422,-11.64063"
           id="path3427"
           inkscape:connector-curvature="0" />
        <path
           style="fill:#f7aa9f;fill-opacity:1;fill-rule:nonzero;stroke:none"
           d="m 273.10547,244.59766 c -15.6836,-19.36329 -31.76172,-28.73829 -32.39063,-29.10157 l -25.02734,-14.8125 -8.77734,5.2461 29.27734,17.32422 c 0.60937,0.35156 60.96094,35.99218 57.05859,110.88671 l -0.004,0.13672 c -0.004,0.11328 -0.3086,11.4961 -5.25391,22.72266 -5.21484,11.84375 -13.48828,18.76172 -24.59375,20.67578 4.36328,-11.37891 4.80078,-21.97266 4.83594,-23.1875 2.64453,-43.26172 -14.19141,-73.30078 -28.78516,-90.88672 -15.32812,-18.47265 -31.14453,-27.26562 -32.74609,-28.125 l -24.69141,-14.67187 -8.76953,5.24218 28.96094,17.20313 0.19922,0.11328 c 0.15234,0.0781 15.4375,8.26563 30.13281,25.97656 19.73047,23.77735 28.72656,52.26563 26.73047,84.67578 l -0.008,0.17579 c -0.004,0.11328 -0.3086,11.49609 -5.25391,22.72265 -0.17969,0.41016 -0.375,0.78906 -0.5625,1.1875 C 242.32422,377.1875 234.07812,371.87891 234,371.82812 l -53.39063,-31.5039 -8.78125,5.24609 57.32813,33.82422 c 1.05859,0.67969 8.53906,5.29688 19.125,7.10156 -6.375,7.92188 -15.16797,11.83594 -26.28125,11.64844 -12.37891,-0.21094 -21.90625,-6.34375 -21.99219,-6.40234 l -53.09375,-31.28516 -8.78515,5.25 57.03906,33.60547 c 1.30469,0.83594 12.22656,7.56641 26.67578,7.81641 0.3125,0.004 0.625,0.008 0.93359,0.008 15.67578,0 27.97657,-6.85938 35.98047,-19.95703 17.15235,-0.65235 30.0625,-9.78516 37.45313,-26.5586 5.49609,-12.47265 5.97656,-24.875 6.01172,-26.07031 2.16796,-41.94922 -14.63672,-72.07031 -29.11719,-89.95312"
           id="path3429"
           inkscape:connector-curvature="0" />
        <g
           id="g6753">
          <path
             id="path3431"
             d="m 121.25,268.07812 -0.21484,47.8125 9,-5.32031 0.15625,-33.30859 c -2.86328,-2.6875 -5.88282,-5.7461 -8.94141,-9.1836"
             style="fill:#ffffff;fill-opacity:1;fill-rule:nonzero;stroke:none"
             inkscape:connector-curvature="0" />
          <path
             inkscape:connector-curvature="0"
             id="path3433"
             d="m 87.5625,335.67969 8.988281,-5.31641 0.121094,-102.02344 C 91.65625,215.62109 88.117188,200.69922 87.722656,183.59375 Z m 0,0"
             style="fill:#ffffff;fill-opacity:1;fill-rule:nonzero;stroke:none" />
        </g>
      </g>
    </g>
  </g>
</svg>
